<svg width="155" height="34" viewBox="0 0 155 34" fill="none" xmlns="http://www.w3.org/2000/svg">
<rect x="3.35138" width="148.297" height="34" rx="10" fill="#544FA3"/>
<path d="M32.3218 23.325C31.3218 23.325 30.5135 23.0167 29.8968 22.4C29.2968 21.7667 28.9968 20.8667 28.9968 19.7C28.9968 18.8667 29.1551 18.0417 29.4718 17.225C29.8051 16.3917 30.2801 15.6417 30.8968 14.975C31.5135 14.3083 32.2551 13.775 33.1218 13.375C33.9885 12.975 34.9635 12.775 36.0468 12.775C37.0468 12.775 37.8968 12.95 38.5968 13.3C39.3135 13.6333 39.6718 14.0917 39.6718 14.675C39.6718 14.825 39.6551 15.025 39.6218 15.275C39.5885 15.5083 39.5468 15.7 39.4968 15.85C39.4468 15.9833 39.3718 16.1083 39.2718 16.225C39.1885 16.325 39.0718 16.375 38.9218 16.375C38.8551 16.375 38.7301 16.35 38.5468 16.3C38.4801 16.65 38.4301 16.9917 38.3968 17.325C38.3635 17.6583 38.3468 17.9917 38.3468 18.325C38.3468 18.9583 38.4385 19.525 38.6218 20.025C38.8218 20.5083 39.2051 20.8083 39.7718 20.925C39.9218 20.9583 40.0385 21.0083 40.1218 21.075C40.2218 21.1417 40.2718 21.2833 40.2718 21.5C40.2718 21.6833 40.2218 21.9167 40.1218 22.2C40.0385 22.4833 39.8635 22.7417 39.5968 22.975C39.3468 23.1917 38.9801 23.3 38.4968 23.3C37.8468 23.3 37.3468 23.0667 36.9968 22.6C36.6468 22.1167 36.4718 21.4333 36.4718 20.55C36.0218 21.3667 35.4468 22.0333 34.7468 22.55C34.0635 23.0667 33.2551 23.325 32.3218 23.325ZM33.1218 20.725C33.7885 20.725 34.3718 20.5167 34.8718 20.1C35.3885 19.6833 35.7885 19.1583 36.0718 18.525C36.2551 18.125 36.3968 17.6917 36.4968 17.225C36.5968 16.7417 36.6635 16.2667 36.6968 15.8C36.4135 15.6667 36.0885 15.5583 35.7218 15.475C35.3551 15.3917 34.9718 15.35 34.5718 15.35C33.5551 15.35 32.7135 15.65 32.0468 16.25C31.3968 16.85 31.0718 17.6 31.0718 18.5C31.0718 19.1667 31.2551 19.7083 31.6218 20.125C31.9885 20.525 32.4885 20.725 33.1218 20.725ZM44.6111 23.325C43.6111 23.325 42.8195 22.9917 42.2361 22.325C41.6695 21.6583 41.3861 20.75 41.3861 19.6C41.3861 18.75 41.5195 17.9167 41.7861 17.1C42.0695 16.2833 42.4611 15.55 42.9611 14.9C43.4611 14.25 44.0445 13.7333 44.7111 13.35C45.3778 12.9667 46.1028 12.775 46.8861 12.775C47.3861 12.775 47.8278 12.85 48.2111 13C48.6111 13.15 48.9611 13.3417 49.2611 13.575C49.2445 12.4417 49.1861 11.425 49.0861 10.525C48.9861 9.625 48.7445 8.79167 48.3611 8.025C48.2945 7.89167 48.2361 7.775 48.1861 7.675C48.1528 7.55833 48.1361 7.45 48.1361 7.35C48.1361 7.11667 48.2278 6.9 48.4111 6.7C48.6111 6.5 48.8528 6.33333 49.1361 6.2C49.4195 6.06667 49.6861 6 49.9361 6C50.3861 6 50.7195 6.2 50.9361 6.6C51.1695 6.98333 51.3195 7.51667 51.3861 8.2C51.4528 8.86667 51.4861 9.63333 51.4861 10.5C51.4861 11.7667 51.4278 12.9083 51.3111 13.925C51.1945 14.9417 51.0861 15.8333 50.9861 16.6C50.9195 17.1 50.8611 17.5333 50.8111 17.9C50.7611 18.2667 50.7361 18.5667 50.7361 18.8C50.7361 19.9833 51.2445 20.6833 52.2611 20.9C52.5278 20.95 52.6611 21.125 52.6611 21.425C52.6611 21.6083 52.6028 21.8417 52.4861 22.125C52.3861 22.4083 52.1945 22.6667 51.9111 22.9C51.6278 23.1167 51.2195 23.225 50.6861 23.225C49.9695 23.225 49.4861 22.9833 49.2361 22.5C48.9861 22.0167 48.8611 21.2833 48.8611 20.3C48.3945 21.15 47.8028 21.8667 47.0861 22.45C46.3695 23.0333 45.5445 23.325 44.6111 23.325ZM45.3861 20.65C45.8528 20.65 46.3195 20.5 46.7861 20.2C47.2528 19.9 47.6695 19.4917 48.0361 18.975C48.2528 18.6583 48.4445 18.3 48.6111 17.9C48.7945 17.4833 48.9611 17.0667 49.1111 16.65C48.2611 15.8833 47.3195 15.5 46.2861 15.5C45.3861 15.5 44.6695 15.775 44.1361 16.325C43.6028 16.8583 43.3361 17.525 43.3361 18.325C43.3361 19.0083 43.5361 19.5667 43.9361 20C44.3361 20.4333 44.8195 20.65 45.3861 20.65ZM57.0708 23.325C56.0708 23.325 55.2791 22.9917 54.6958 22.325C54.1291 21.6583 53.8458 20.75 53.8458 19.6C53.8458 18.75 53.9791 17.9167 54.2458 17.1C54.5291 16.2833 54.9208 15.55 55.4208 14.9C55.9208 14.25 56.5041 13.7333 57.1708 13.35C57.8374 12.9667 58.5624 12.775 59.3458 12.775C59.8458 12.775 60.2874 12.85 60.6708 13C61.0708 13.15 61.4208 13.3417 61.7208 13.575C61.7041 12.4417 61.6458 11.425 61.5458 10.525C61.4458 9.625 61.2041 8.79167 60.8208 8.025C60.7541 7.89167 60.6958 7.775 60.6458 7.675C60.6124 7.55833 60.5958 7.45 60.5958 7.35C60.5958 7.11667 60.6874 6.9 60.8708 6.7C61.0708 6.5 61.3124 6.33333 61.5958 6.2C61.8791 6.06667 62.1458 6 62.3958 6C62.8458 6 63.1791 6.2 63.3958 6.6C63.6291 6.98333 63.7791 7.51667 63.8458 8.2C63.9124 8.86667 63.9458 9.63333 63.9458 10.5C63.9458 11.7667 63.8874 12.9083 63.7708 13.925C63.6541 14.9417 63.5458 15.8333 63.4458 16.6C63.3791 17.1 63.3208 17.5333 63.2708 17.9C63.2208 18.2667 63.1958 18.5667 63.1958 18.8C63.1958 19.9833 63.7041 20.6833 64.7208 20.9C64.9874 20.95 65.1208 21.125 65.1208 21.425C65.1208 21.6083 65.0624 21.8417 64.9458 22.125C64.8458 22.4083 64.6541 22.6667 64.3708 22.9C64.0874 23.1167 63.6791 23.225 63.1458 23.225C62.4291 23.225 61.9458 22.9833 61.6958 22.5C61.4458 22.0167 61.3208 21.2833 61.3208 20.3C60.8541 21.15 60.2624 21.8667 59.5458 22.45C58.8291 23.0333 58.0041 23.325 57.0708 23.325ZM57.8458 20.65C58.3124 20.65 58.7791 20.5 59.2458 20.2C59.7124 19.9 60.1291 19.4917 60.4958 18.975C60.7124 18.6583 60.9041 18.3 61.0708 17.9C61.2541 17.4833 61.4208 17.0667 61.5708 16.65C60.7208 15.8833 59.7791 15.5 58.7458 15.5C57.8458 15.5 57.1291 15.775 56.5958 16.325C56.0624 16.8583 55.7958 17.525 55.7958 18.325C55.7958 19.0083 55.9958 19.5667 56.3958 20C56.7958 20.4333 57.2791 20.65 57.8458 20.65ZM76.623 23.325C76.0064 23.325 75.4314 23.2333 74.898 23.05C74.3647 22.8667 73.9314 22.6083 73.598 22.275C73.2647 21.9417 73.098 21.5417 73.098 21.075C73.098 20.825 73.1564 20.5917 73.273 20.375C73.4064 20.1417 73.6147 20.025 73.898 20.025C74.048 20.025 74.2064 20.0667 74.373 20.15C74.673 20.3167 75.0564 20.475 75.523 20.625C75.9897 20.7583 76.4814 20.825 76.998 20.825C77.5814 20.825 78.098 20.7417 78.548 20.575C78.998 20.4083 79.223 20.175 79.223 19.875C79.223 19.6417 79.048 19.475 78.698 19.375C78.3647 19.275 77.798 19.1667 76.998 19.05C76.448 18.95 75.9147 18.8333 75.398 18.7C74.8814 18.5667 74.4564 18.3417 74.123 18.025C73.7897 17.6917 73.623 17.2083 73.623 16.575C73.623 15.9583 73.7897 15.3667 74.123 14.8C74.473 14.2167 74.9897 13.7333 75.673 13.35C76.3564 12.9667 77.1897 12.775 78.173 12.775C78.6897 12.775 79.1897 12.8333 79.673 12.95C80.1564 13.0667 80.5564 13.2417 80.873 13.475C81.1897 13.7083 81.348 14 81.348 14.35C81.348 14.65 81.2397 14.925 81.023 15.175C80.823 15.425 80.5814 15.6333 80.298 15.8C80.0314 15.95 79.8064 16.025 79.623 16.025C79.4897 16.025 79.3314 15.9333 79.148 15.75C78.8647 15.5167 78.548 15.3583 78.198 15.275C77.8647 15.175 77.5314 15.125 77.198 15.125C76.698 15.125 76.2897 15.2 75.973 15.35C75.673 15.5 75.523 15.6917 75.523 15.925C75.523 16.1417 75.648 16.3167 75.898 16.45C76.1647 16.5833 76.4897 16.6833 76.873 16.75C77.2564 16.8 77.623 16.85 77.973 16.9C78.9397 17.0333 79.7064 17.2667 80.273 17.6C80.8397 17.9167 81.123 18.4833 81.123 19.3C81.123 19.9333 80.9397 20.5667 80.573 21.2C80.223 21.8167 79.7064 22.325 79.023 22.725C78.3564 23.125 77.5564 23.325 76.623 23.325ZM86.9006 23.325C85.7506 23.325 84.8256 23.0167 84.1256 22.4C83.4423 21.7667 83.1006 20.8417 83.1006 19.625C83.1006 19.0583 83.1756 18.5083 83.3256 17.975C83.4923 17.4417 83.709 16.9417 83.9756 16.475C83.709 16.6417 83.509 16.725 83.3756 16.725C83.1756 16.725 83.034 16.6167 82.9506 16.4C82.884 16.1667 82.8506 15.9417 82.8506 15.725C82.8506 15.3417 82.9256 15.0417 83.0756 14.825C83.2423 14.5917 83.4006 14.4167 83.5506 14.3C83.9006 14 84.4506 13.675 85.2006 13.325C85.9506 12.9583 86.8506 12.775 87.9006 12.775C89.334 12.775 90.4423 13.175 91.2256 13.975C92.0256 14.775 92.4256 15.8917 92.4256 17.325C92.4256 18.4417 92.1923 19.4583 91.7256 20.375C91.259 21.275 90.609 21.9917 89.7756 22.525C88.959 23.0583 88.0006 23.325 86.9006 23.325ZM87.6756 20.775C88.509 20.775 89.209 20.5167 89.7756 20C90.359 19.4667 90.6506 18.7667 90.6506 17.9C90.6506 17 90.359 16.3583 89.7756 15.975C89.1923 15.5917 88.5173 15.4 87.7506 15.4C87.4006 15.4 87.084 15.4333 86.8006 15.5C86.5173 15.5667 86.2506 15.65 86.0006 15.75C85.7673 16.0833 85.559 16.4583 85.3756 16.875C85.1923 17.2917 85.1006 17.75 85.1006 18.25C85.1006 19.0833 85.3506 19.7167 85.8506 20.15C86.3506 20.5667 86.959 20.775 87.6756 20.775ZM95.4187 23.275C94.8187 23.275 94.552 23.075 94.6187 22.675C94.802 21.9583 94.952 21.2333 95.0687 20.5C95.202 19.75 95.2687 19.0333 95.2687 18.35C95.2687 17.4667 95.2103 16.825 95.0937 16.425C94.9937 16.0083 94.852 15.725 94.6687 15.575C94.4853 15.4083 94.2603 15.2833 93.9937 15.2C93.877 15.15 93.7687 15.0833 93.6687 15C93.5853 14.9167 93.5437 14.8 93.5437 14.65C93.5437 14.4167 93.6353 14.1583 93.8187 13.875C94.002 13.5917 94.2603 13.35 94.5937 13.15C94.9437 12.9333 95.3353 12.825 95.7687 12.825C96.3353 12.825 96.727 13.025 96.9437 13.425C97.1603 13.8083 97.2687 14.3167 97.2687 14.95C97.2687 15.3667 97.227 15.8333 97.1437 16.35C97.0603 16.8667 96.977 17.3333 96.8937 17.75L96.9687 17.775C97.302 16.8917 97.702 16.075 98.1687 15.325C98.652 14.5583 99.2103 13.9417 99.8437 13.475C100.477 13.0083 101.21 12.775 102.044 12.775C102.927 12.775 103.602 13.0417 104.069 13.575C104.535 14.1083 104.769 14.775 104.769 15.575C104.769 15.9083 104.727 16.225 104.644 16.525C104.577 16.825 104.502 17.1167 104.419 17.4C104.335 17.6667 104.26 17.9417 104.194 18.225C104.144 18.5083 104.119 18.7917 104.119 19.075C104.119 20.025 104.569 20.6667 105.469 21C105.702 21.1 105.819 21.25 105.819 21.45C105.819 21.6 105.769 21.8167 105.669 22.1C105.569 22.3833 105.385 22.65 105.119 22.9C104.852 23.1333 104.46 23.25 103.944 23.25C103.277 23.25 102.76 23.0167 102.394 22.55C102.027 22.0667 101.844 21.4583 101.844 20.725C101.844 20.3083 101.885 19.8917 101.969 19.475C102.069 19.0417 102.169 18.6417 102.269 18.275C102.335 17.9917 102.394 17.7167 102.444 17.45C102.51 17.1667 102.544 16.9167 102.544 16.7C102.544 15.9333 102.144 15.55 101.344 15.55C100.66 15.55 100.06 15.8083 99.5437 16.325C99.027 16.825 98.5853 17.4583 98.2187 18.225C97.852 18.9917 97.552 19.7667 97.3187 20.55V21.15C97.3187 21.7667 97.1437 22.275 96.7937 22.675C96.4603 23.075 96.002 23.275 95.4187 23.275ZM110.339 29.9C109.089 29.9 108.097 29.6417 107.364 29.125C106.63 28.6083 106.264 27.9417 106.264 27.125C106.264 26.525 106.447 25.9917 106.814 25.525C107.197 25.0583 107.697 24.825 108.314 24.825C108.664 24.825 108.839 24.925 108.839 25.125C108.839 25.2417 108.814 25.375 108.764 25.525C108.73 25.675 108.714 25.825 108.714 25.975C108.714 26.4417 108.98 26.7833 109.514 27C110.047 27.2333 110.689 27.35 111.439 27.35C111.905 27.35 112.38 27.3 112.864 27.2C113.347 27.1 113.747 26.9417 114.064 26.725C114.397 26.525 114.564 26.25 114.564 25.9C114.564 25.5167 114.372 25.2333 113.989 25.05C113.605 24.8667 113.122 24.725 112.539 24.625C111.955 24.5417 111.355 24.4583 110.739 24.375C110.139 24.3083 109.622 24.1917 109.189 24.025C108.639 23.8417 108.23 23.6167 107.964 23.35C107.697 23.0833 107.564 22.7417 107.564 22.325C107.564 21.5417 108.039 20.9167 108.989 20.45C108.439 20.1667 108.022 19.7667 107.739 19.25C107.472 18.7333 107.339 18.1583 107.339 17.525C107.339 16.7083 107.547 15.9417 107.964 15.225C108.397 14.5083 109.03 13.925 109.864 13.475C110.714 13.0083 111.772 12.775 113.039 12.775C113.605 12.775 114.18 12.8333 114.764 12.95C115.347 13.05 115.83 13.25 116.214 13.55C116.614 13.8333 116.814 14.25 116.814 14.8C116.814 15 116.772 15.225 116.689 15.475C116.605 15.7083 116.447 15.825 116.214 15.825C116.114 15.825 115.98 15.8083 115.814 15.775C115.647 15.725 115.497 15.6833 115.364 15.65C115.397 15.8167 115.422 16 115.439 16.2C115.472 16.4 115.489 16.6083 115.489 16.825C115.489 17.8083 115.155 18.7 114.489 19.5C113.822 20.2833 112.847 20.75 111.564 20.9C111.097 20.9333 110.747 20.9917 110.514 21.075C110.297 21.1417 110.189 21.2667 110.189 21.45C110.189 21.6167 110.289 21.7417 110.489 21.825C110.689 21.8917 110.947 21.9417 111.264 21.975C112.28 22.0583 113.18 22.2 113.964 22.4C114.747 22.6 115.355 22.9167 115.789 23.35C116.239 23.8 116.464 24.4333 116.464 25.25C116.464 26.2 116.18 27.0167 115.614 27.7C115.064 28.4 114.322 28.9417 113.389 29.325C112.455 29.7083 111.439 29.9 110.339 29.9ZM111.289 18.725C112.055 18.725 112.655 18.5167 113.089 18.1C113.522 17.6833 113.739 17.1417 113.739 16.475C113.739 16.2917 113.722 16.1083 113.689 15.925C113.655 15.725 113.622 15.5583 113.589 15.425C113.322 15.3417 113.064 15.2917 112.814 15.275C112.564 15.2417 112.322 15.225 112.089 15.225C111.205 15.225 110.514 15.3917 110.014 15.725C109.514 16.0583 109.264 16.5167 109.264 17.1C109.264 17.6167 109.447 18.0167 109.814 18.3C110.18 18.5833 110.672 18.725 111.289 18.725ZM121.017 23.325C120.401 23.325 119.826 23.2333 119.292 23.05C118.759 22.8667 118.326 22.6083 117.992 22.275C117.659 21.9417 117.492 21.5417 117.492 21.075C117.492 20.825 117.551 20.5917 117.667 20.375C117.801 20.1417 118.009 20.025 118.292 20.025C118.442 20.025 118.601 20.0667 118.767 20.15C119.067 20.3167 119.451 20.475 119.917 20.625C120.384 20.7583 120.876 20.825 121.392 20.825C121.976 20.825 122.492 20.7417 122.942 20.575C123.392 20.4083 123.617 20.175 123.617 19.875C123.617 19.6417 123.442 19.475 123.092 19.375C122.759 19.275 122.192 19.1667 121.392 19.05C120.842 18.95 120.309 18.8333 119.792 18.7C119.276 18.5667 118.851 18.3417 118.517 18.025C118.184 17.6917 118.017 17.2083 118.017 16.575C118.017 15.9583 118.184 15.3667 118.517 14.8C118.867 14.2167 119.384 13.7333 120.067 13.35C120.751 12.9667 121.584 12.775 122.567 12.775C123.084 12.775 123.584 12.8333 124.067 12.95C124.551 13.0667 124.951 13.2417 125.267 13.475C125.584 13.7083 125.742 14 125.742 14.35C125.742 14.65 125.634 14.925 125.417 15.175C125.217 15.425 124.976 15.6333 124.692 15.8C124.426 15.95 124.201 16.025 124.017 16.025C123.884 16.025 123.726 15.9333 123.542 15.75C123.259 15.5167 122.942 15.3583 122.592 15.275C122.259 15.175 121.926 15.125 121.592 15.125C121.092 15.125 120.684 15.2 120.367 15.35C120.067 15.5 119.917 15.6917 119.917 15.925C119.917 16.1417 120.042 16.3167 120.292 16.45C120.559 16.5833 120.884 16.6833 121.267 16.75C121.651 16.8 122.017 16.85 122.367 16.9C123.334 17.0333 124.101 17.2667 124.667 17.6C125.234 17.9167 125.517 18.4833 125.517 19.3C125.517 19.9333 125.334 20.5667 124.967 21.2C124.617 21.8167 124.101 22.325 123.417 22.725C122.751 23.125 121.951 23.325 121.017 23.325Z" fill="#D9D9D9"/>
</svg>
