<svg width="74" height="34" viewBox="0 0 74 34" fill="none" xmlns="http://www.w3.org/2000/svg">
<rect width="74" height="34" rx="10" fill="#544FA3"/>
<path d="M14.944 24.325C14.3273 24.325 13.794 24.2167 13.344 24C12.9107 23.7833 12.5273 23.5083 12.194 23.175C12.0273 23.4583 11.8273 23.7167 11.594 23.95C11.3773 24.1667 11.1273 24.275 10.844 24.275C10.6607 24.275 10.4857 24.2167 10.319 24.1C10.1523 24 10.0857 23.8583 10.119 23.675C10.369 22.3417 10.5773 20.9917 10.744 19.625C10.9273 18.2583 11.019 16.8667 11.019 15.45C11.019 14.2667 10.9773 13.1583 10.894 12.125C10.8107 11.0917 10.5523 10.1417 10.119 9.275C10.0357 9.10833 9.96068 8.95 9.89401 8.8C9.84401 8.65 9.81901 8.50833 9.81901 8.375C9.81901 8.05833 10.0023 7.75 10.369 7.45C10.7357 7.15 11.1273 7 11.544 7C12.144 7 12.5523 7.36667 12.769 8.1C12.9857 8.83333 13.094 9.91667 13.094 11.35C13.094 12.5667 13.0357 13.6833 12.919 14.7C12.819 15.7 12.7023 16.5583 12.569 17.275C13.0357 16.2917 13.669 15.4667 14.469 14.8C15.2857 14.1167 16.2023 13.775 17.219 13.775C18.2357 13.775 19.0273 14.1167 19.594 14.8C20.1773 15.4667 20.469 16.375 20.469 17.525C20.469 18.375 20.3357 19.2083 20.069 20.025C19.8023 20.825 19.4273 21.55 18.944 22.2C18.4607 22.85 17.8773 23.3667 17.194 23.75C16.5273 24.1333 15.7773 24.325 14.944 24.325ZM15.519 21.625C16.469 21.625 17.2023 21.325 17.719 20.725C18.2357 20.125 18.494 19.4333 18.494 18.65C18.494 17.9667 18.3023 17.4417 17.919 17.075C17.5523 16.6917 17.0607 16.5 16.444 16.5C15.8273 16.5 15.2773 16.6917 14.794 17.075C14.3107 17.4417 13.9023 17.9333 13.569 18.55C13.2357 19.15 12.9773 19.8 12.794 20.5C13.1773 20.8667 13.6023 21.15 14.069 21.35C14.5523 21.5333 15.0357 21.625 15.519 21.625ZM23.5607 24.275C23.294 24.275 23.0773 24.225 22.9107 24.125C22.7607 24.0417 22.7107 23.8917 22.7607 23.675C22.944 22.9583 23.094 22.2333 23.2107 21.5C23.344 20.75 23.4107 20.0333 23.4107 19.35C23.4107 18.4667 23.3523 17.825 23.2357 17.425C23.1357 17.0083 22.994 16.725 22.8107 16.575C22.6273 16.4083 22.4023 16.2833 22.1357 16.2C22.019 16.15 21.9107 16.0833 21.8107 16C21.7273 15.9167 21.6857 15.8 21.6857 15.65C21.6857 15.4167 21.7773 15.1583 21.9607 14.875C22.144 14.5917 22.4023 14.35 22.7357 14.15C23.069 13.9333 23.4523 13.825 23.8857 13.825C24.4523 13.825 24.844 14.025 25.0607 14.425C25.294 14.8083 25.4107 15.3167 25.4107 15.95C25.7107 15.2833 26.0773 14.7583 26.5107 14.375C26.9607 13.975 27.519 13.775 28.1857 13.775C28.6357 13.775 29.0107 13.875 29.3107 14.075C29.6107 14.275 29.7607 14.6 29.7607 15.05C29.7607 15.5 29.6107 15.925 29.3107 16.325C29.0273 16.7083 28.7357 16.9 28.4357 16.9C28.3857 16.9 28.3273 16.8917 28.2607 16.875C28.194 16.8583 28.1357 16.8167 28.0857 16.75C27.869 16.4833 27.6023 16.35 27.2857 16.35C26.8023 16.35 26.3773 16.6667 26.0107 17.3C25.644 17.9333 25.444 18.8083 25.4107 19.925C25.4273 20.3417 25.4357 20.7667 25.4357 21.2C25.4523 21.6333 25.4607 21.95 25.4607 22.15C25.4607 22.7667 25.2857 23.275 24.9357 23.675C24.6023 24.075 24.144 24.275 23.5607 24.275ZM33.6357 24.325C32.3691 24.325 31.3774 23.9667 30.6607 23.25C29.9607 22.5167 29.6107 21.5 29.6107 20.2C29.6107 19.0167 29.8691 17.9417 30.3857 16.975C30.9024 16.0083 31.5941 15.2417 32.4607 14.675C33.3441 14.0917 34.3107 13.8 35.3607 13.8C36.3607 13.8 37.1607 14.05 37.7607 14.55C38.3607 15.0333 38.6607 15.6833 38.6607 16.5C38.6607 17.15 38.4607 17.75 38.0607 18.3C37.6607 18.85 37.1274 19.2917 36.4607 19.625C35.7941 19.9417 35.0524 20.1 34.2357 20.1C33.2357 20.1 32.4191 19.875 31.7857 19.425C31.8024 20.1917 32.0607 20.8083 32.5607 21.275C33.0774 21.7417 33.7357 21.975 34.5357 21.975C35.0191 21.975 35.5107 21.8917 36.0107 21.725C36.5274 21.5417 36.9691 21.3 37.3357 21C37.5691 20.8 37.7857 20.7 37.9857 20.7C38.1524 20.7 38.2857 20.7583 38.3857 20.875C38.5024 20.975 38.5607 21.1083 38.5607 21.275C38.5607 21.6417 38.2441 22.125 37.6107 22.725C36.4941 23.7917 35.1691 24.325 33.6357 24.325ZM34.0107 18.45C34.6107 18.45 35.1107 18.325 35.5107 18.075C35.9107 17.825 36.1107 17.5083 36.1107 17.125C36.1107 16.8083 35.9774 16.5667 35.7107 16.4C35.4441 16.2167 35.0774 16.125 34.6107 16.125C33.9941 16.125 33.4524 16.2917 32.9857 16.625C32.5357 16.9417 32.2107 17.3917 32.0107 17.975C32.2441 18.125 32.5441 18.2417 32.9107 18.325C33.2774 18.4083 33.6441 18.45 34.0107 18.45ZM43.3417 24.325C42.3417 24.325 41.5333 24.0167 40.9167 23.4C40.3167 22.7667 40.0167 21.8667 40.0167 20.7C40.0167 19.8667 40.175 19.0417 40.4917 18.225C40.825 17.3917 41.3 16.6417 41.9167 15.975C42.5333 15.3083 43.275 14.775 44.1417 14.375C45.0083 13.975 45.9833 13.775 47.0667 13.775C48.0667 13.775 48.9167 13.95 49.6167 14.3C50.3333 14.6333 50.6917 15.0917 50.6917 15.675C50.6917 15.825 50.675 16.025 50.6417 16.275C50.6083 16.5083 50.5667 16.7 50.5167 16.85C50.4667 16.9833 50.3917 17.1083 50.2917 17.225C50.2083 17.325 50.0917 17.375 49.9417 17.375C49.875 17.375 49.75 17.35 49.5667 17.3C49.5 17.65 49.45 17.9917 49.4167 18.325C49.3833 18.6583 49.3667 18.9917 49.3667 19.325C49.3667 19.9583 49.4583 20.525 49.6417 21.025C49.8417 21.5083 50.225 21.8083 50.7917 21.925C50.9417 21.9583 51.0583 22.0083 51.1417 22.075C51.2417 22.1417 51.2917 22.2833 51.2917 22.5C51.2917 22.6833 51.2417 22.9167 51.1417 23.2C51.0583 23.4833 50.8833 23.7417 50.6167 23.975C50.3667 24.1917 50 24.3 49.5167 24.3C48.8667 24.3 48.3667 24.0667 48.0167 23.6C47.6667 23.1167 47.4917 22.4333 47.4917 21.55C47.0417 22.3667 46.4667 23.0333 45.7667 23.55C45.0833 24.0667 44.275 24.325 43.3417 24.325ZM44.1417 21.725C44.8083 21.725 45.3917 21.5167 45.8917 21.1C46.4083 20.6833 46.8083 20.1583 47.0917 19.525C47.275 19.125 47.4167 18.6917 47.5167 18.225C47.6167 17.7417 47.6833 17.2667 47.7167 16.8C47.4333 16.6667 47.1083 16.5583 46.7417 16.475C46.375 16.3917 45.9917 16.35 45.5917 16.35C44.575 16.35 43.7333 16.65 43.0667 17.25C42.4167 17.85 42.0917 18.6 42.0917 19.5C42.0917 20.1667 42.275 20.7083 42.6417 21.125C43.0083 21.525 43.5083 21.725 44.1417 21.725ZM53.456 24.275C53.2727 24.275 53.0977 24.2167 52.931 24.1C52.7643 24 52.6977 23.8583 52.731 23.675C52.981 22.3417 53.1893 20.9917 53.356 19.625C53.5393 18.2417 53.631 16.85 53.631 15.45C53.631 14.2167 53.5893 13.1 53.506 12.1C53.4227 11.1 53.156 10.1417 52.706 9.225C52.6227 9.04167 52.556 8.88333 52.506 8.75C52.456 8.61667 52.431 8.49167 52.431 8.375C52.431 8.05833 52.6143 7.75 52.981 7.45C53.3477 7.15 53.7393 7 54.156 7C54.756 7 55.1643 7.36667 55.381 8.1C55.5977 8.83333 55.706 9.91667 55.706 11.35C55.706 13.0667 55.606 14.5667 55.406 15.85C55.206 17.1167 55.031 18.0833 54.881 18.75L54.981 18.8C55.3143 17.9833 55.7393 17.2 56.256 16.45C56.7727 15.6833 57.3643 15.05 58.031 14.55C58.7143 14.05 59.456 13.8 60.256 13.8C61.0393 13.8 61.6393 14.0333 62.056 14.5C62.4893 14.9667 62.706 15.525 62.706 16.175C62.706 16.9417 62.431 17.625 61.881 18.225C61.331 18.825 60.6143 19.325 59.731 19.725C59.9477 20.2917 60.256 20.7417 60.656 21.075C61.056 21.3917 61.5643 21.55 62.181 21.55C62.381 21.55 62.5477 21.5333 62.681 21.5C62.8977 21.45 63.006 21.6583 63.006 22.125C63.006 22.3917 62.956 22.6917 62.856 23.025C62.756 23.3583 62.556 23.65 62.256 23.9C61.9727 24.1333 61.5393 24.25 60.956 24.25C60.1727 24.25 59.531 24.025 59.031 23.575C58.5477 23.1083 58.1643 22.5417 57.881 21.875C57.6143 21.1917 57.406 20.5167 57.256 19.85C57.1227 19.2333 57.331 18.9083 57.881 18.875C58.4643 18.8083 58.956 18.6333 59.356 18.35C59.756 18.0667 59.956 17.6917 59.956 17.225C59.956 16.6917 59.6977 16.425 59.181 16.425C58.8477 16.425 58.506 16.55 58.156 16.8C57.8227 17.0333 57.506 17.3167 57.206 17.65C56.9227 17.9833 56.6893 18.3083 56.506 18.625C56.256 19.0583 56.0393 19.4833 55.856 19.9C55.6727 20.3167 55.5227 20.7333 55.406 21.15V22.15C55.406 22.7667 55.2227 23.275 54.856 23.675C54.506 24.075 54.0393 24.275 53.456 24.275Z" fill="#D9D9D9"/>
</svg>
