<svg width="185" height="34" viewBox="0 0 185 34" fill="none" xmlns="http://www.w3.org/2000/svg">
<rect x="4" width="177" height="34" rx="10" fill="#544FA3"/>
<path d="M29.0109 23.325C28.0109 23.325 27.2192 22.9917 26.6359 22.325C26.0692 21.6583 25.7859 20.75 25.7859 19.6C25.7859 18.75 25.9192 17.9167 26.1859 17.1C26.4692 16.2833 26.8609 15.55 27.3609 14.9C27.8609 14.25 28.4442 13.7333 29.1109 13.35C29.7775 12.9667 30.5025 12.775 31.2859 12.775C31.7859 12.775 32.2275 12.85 32.6109 13C33.0109 13.15 33.3609 13.3417 33.6609 13.575C33.6442 12.4417 33.5859 11.425 33.4859 10.525C33.3859 9.625 33.1442 8.79167 32.7609 8.025C32.6942 7.89167 32.6359 7.775 32.5859 7.675C32.5525 7.55833 32.5359 7.45 32.5359 7.35C32.5359 7.11667 32.6275 6.9 32.8109 6.7C33.0109 6.5 33.2525 6.33333 33.5359 6.2C33.8192 6.06667 34.0859 6 34.3359 6C34.7859 6 35.1192 6.2 35.3359 6.6C35.5692 6.98333 35.7192 7.51667 35.7859 8.2C35.8525 8.86667 35.8859 9.63333 35.8859 10.5C35.8859 11.7667 35.8275 12.9083 35.7109 13.925C35.5942 14.9417 35.4859 15.8333 35.3859 16.6C35.3192 17.1 35.2609 17.5333 35.2109 17.9C35.1609 18.2667 35.1359 18.5667 35.1359 18.8C35.1359 19.9833 35.6442 20.6833 36.6609 20.9C36.9275 20.95 37.0609 21.125 37.0609 21.425C37.0609 21.6083 37.0025 21.8417 36.8859 22.125C36.7859 22.4083 36.5942 22.6667 36.3109 22.9C36.0275 23.1167 35.6192 23.225 35.0859 23.225C34.3692 23.225 33.8859 22.9833 33.6359 22.5C33.3859 22.0167 33.2609 21.2833 33.2609 20.3C32.7942 21.15 32.2025 21.8667 31.4859 22.45C30.7692 23.0333 29.9442 23.325 29.0109 23.325ZM29.7859 20.65C30.2525 20.65 30.7192 20.5 31.1859 20.2C31.6525 19.9 32.0692 19.4917 32.4359 18.975C32.6525 18.6583 32.8442 18.3 33.0109 17.9C33.1942 17.4833 33.3609 17.0667 33.5109 16.65C32.6609 15.8833 31.7192 15.5 30.6859 15.5C29.7859 15.5 29.0692 15.775 28.5359 16.325C28.0025 16.8583 27.7359 17.525 27.7359 18.325C27.7359 19.0083 27.9359 19.5667 28.3359 20C28.7359 20.4333 29.2192 20.65 29.7859 20.65ZM42.2705 23.325C41.0038 23.325 40.0122 22.9667 39.2955 22.25C38.5955 21.5167 38.2455 20.5 38.2455 19.2C38.2455 18.0167 38.5038 16.9417 39.0205 15.975C39.5372 15.0083 40.2288 14.2417 41.0955 13.675C41.9788 13.0917 42.9455 12.8 43.9955 12.8C44.9955 12.8 45.7955 13.05 46.3955 13.55C46.9955 14.0333 47.2955 14.6833 47.2955 15.5C47.2955 16.15 47.0955 16.75 46.6955 17.3C46.2955 17.85 45.7622 18.2917 45.0955 18.625C44.4288 18.9417 43.6872 19.1 42.8705 19.1C41.8705 19.1 41.0538 18.875 40.4205 18.425C40.4372 19.1917 40.6955 19.8083 41.1955 20.275C41.7122 20.7417 42.3705 20.975 43.1705 20.975C43.6538 20.975 44.1455 20.8917 44.6455 20.725C45.1622 20.5417 45.6038 20.3 45.9705 20C46.2038 19.8 46.4205 19.7 46.6205 19.7C46.7872 19.7 46.9205 19.7583 47.0205 19.875C47.1372 19.975 47.1955 20.1083 47.1955 20.275C47.1955 20.6417 46.8788 21.125 46.2455 21.725C45.1288 22.7917 43.8038 23.325 42.2705 23.325ZM42.6455 17.45C43.2455 17.45 43.7455 17.325 44.1455 17.075C44.5455 16.825 44.7455 16.5083 44.7455 16.125C44.7455 15.8083 44.6122 15.5667 44.3455 15.4C44.0788 15.2167 43.7122 15.125 43.2455 15.125C42.6288 15.125 42.0872 15.2917 41.6205 15.625C41.1705 15.9417 40.8455 16.3917 40.6455 16.975C40.8788 17.125 41.1788 17.2417 41.5455 17.325C41.9122 17.4083 42.2788 17.45 42.6455 17.45ZM50.5311 23.25C50.0478 23.25 49.6895 23.1167 49.4561 22.85C49.2228 22.5833 49.1061 22.1167 49.1061 21.45C49.1061 21.1333 49.1311 20.725 49.1811 20.225C49.2311 19.725 49.2895 19.1833 49.3561 18.6C49.4561 17.8833 49.5395 17.1333 49.6061 16.35C49.6895 15.5667 49.7311 14.8167 49.7311 14.1C49.7311 13.0833 49.6811 12.0333 49.5811 10.95C49.4978 9.85 49.2478 8.89167 48.8311 8.075C48.6811 7.74167 48.6061 7.5 48.6061 7.35C48.6061 7.13333 48.6978 6.925 48.8811 6.725C49.0811 6.525 49.3228 6.35833 49.6061 6.225C49.8895 6.075 50.1645 6 50.4311 6C50.8645 6 51.1895 6.2 51.4061 6.6C51.6228 6.98333 51.7645 7.51667 51.8311 8.2C51.8978 8.86667 51.9311 9.63333 51.9311 10.5C51.9311 11.8167 51.8728 12.9583 51.7561 13.925C51.6561 14.8917 51.5561 15.7417 51.4561 16.475C51.3895 16.9583 51.3228 17.4167 51.2561 17.85C51.2061 18.2833 51.1811 18.675 51.1811 19.025C51.1811 19.6083 51.2728 20.0333 51.4561 20.3C51.6561 20.55 51.9728 20.8 52.4061 21.05C52.5228 21.1167 52.6061 21.1833 52.6561 21.25C52.7228 21.3 52.7561 21.3833 52.7561 21.5C52.7561 21.6333 52.6895 21.8417 52.5561 22.125C52.4228 22.4083 52.1895 22.6667 51.8561 22.9C51.5395 23.1333 51.0978 23.25 50.5311 23.25ZM57.9613 23.325C56.6946 23.325 55.7029 22.9667 54.9863 22.25C54.2863 21.5167 53.9363 20.5 53.9363 19.2C53.9363 18.0167 54.1946 16.9417 54.7113 15.975C55.2279 15.0083 55.9196 14.2417 56.7863 13.675C57.6696 13.0917 58.6363 12.8 59.6863 12.8C60.6863 12.8 61.4863 13.05 62.0863 13.55C62.6863 14.0333 62.9863 14.6833 62.9863 15.5C62.9863 16.15 62.7863 16.75 62.3863 17.3C61.9863 17.85 61.4529 18.2917 60.7863 18.625C60.1196 18.9417 59.3779 19.1 58.5613 19.1C57.5613 19.1 56.7446 18.875 56.1113 18.425C56.1279 19.1917 56.3863 19.8083 56.8863 20.275C57.4029 20.7417 58.0613 20.975 58.8613 20.975C59.3446 20.975 59.8363 20.8917 60.3363 20.725C60.8529 20.5417 61.2946 20.3 61.6613 20C61.8946 19.8 62.1113 19.7 62.3113 19.7C62.4779 19.7 62.6113 19.7583 62.7113 19.875C62.8279 19.975 62.8863 20.1083 62.8863 20.275C62.8863 20.6417 62.5696 21.125 61.9363 21.725C60.8196 22.7917 59.4946 23.325 57.9613 23.325ZM58.3363 17.45C58.9363 17.45 59.4363 17.325 59.8363 17.075C60.2363 16.825 60.4363 16.5083 60.4363 16.125C60.4363 15.8083 60.3029 15.5667 60.0363 15.4C59.7696 15.2167 59.4029 15.125 58.9363 15.125C58.3196 15.125 57.7779 15.2917 57.3113 15.625C56.8613 15.9417 56.5363 16.3917 56.3363 16.975C56.5696 17.125 56.8696 17.2417 57.2363 17.325C57.6029 17.4083 57.9696 17.45 58.3363 17.45ZM68.2172 23.325C67.2005 23.325 66.4672 22.9917 66.0172 22.325C65.5839 21.6417 65.3672 20.7667 65.3672 19.7C65.3672 19.3167 65.3839 18.9417 65.4172 18.575C65.4672 18.2083 65.5172 17.8417 65.5672 17.475C65.6172 17.1083 65.6672 16.75 65.7172 16.4C65.7672 16.05 65.8089 15.7167 65.8422 15.4C65.4922 15.5 65.1422 15.55 64.7922 15.55C64.4255 15.55 64.2422 15.4 64.2422 15.1C64.2422 14.7833 64.3839 14.4 64.6672 13.95C64.9505 13.4833 65.3005 13.025 65.7172 12.575C66.1505 12.125 66.5755 11.75 66.9922 11.45C67.4255 11.1333 67.7922 10.975 68.0922 10.975C68.4589 10.975 68.6422 11.2917 68.6422 11.925C68.6422 12.0917 68.6255 12.2667 68.5922 12.45C68.5755 12.6167 68.5505 12.7917 68.5172 12.975C68.8339 12.9083 69.1505 12.85 69.4672 12.8C69.8005 12.75 70.1172 12.725 70.4172 12.725C70.8005 12.725 71.0922 12.7917 71.2922 12.925C71.5089 13.0583 71.6172 13.3167 71.6172 13.7C71.6172 14.1 71.5172 14.5 71.3172 14.9C71.1339 15.3 70.9255 15.5 70.6922 15.5C70.6422 15.5 70.5589 15.4917 70.4422 15.475C70.3255 15.4583 70.1839 15.4333 70.0172 15.4C69.8005 15.35 69.5255 15.3 69.1922 15.25C68.8589 15.2 68.4589 15.175 67.9922 15.175C67.8755 15.6917 67.7672 16.225 67.6672 16.775C67.5839 17.3083 67.5422 17.7917 67.5422 18.225C67.5422 19.1917 67.7839 19.85 68.2672 20.2C68.7505 20.55 69.4505 20.725 70.3672 20.725C70.6505 20.725 70.8505 20.775 70.9672 20.875C71.0839 20.9583 71.1422 21.1167 71.1422 21.35C71.1422 21.9 70.8589 22.3667 70.2922 22.75C69.7255 23.1333 69.0339 23.325 68.2172 23.325ZM76.3376 23.325C75.0709 23.325 74.0792 22.9667 73.3626 22.25C72.6626 21.5167 72.3126 20.5 72.3126 19.2C72.3126 18.0167 72.5709 16.9417 73.0876 15.975C73.6042 15.0083 74.2959 14.2417 75.1626 13.675C76.0459 13.0917 77.0126 12.8 78.0626 12.8C79.0626 12.8 79.8626 13.05 80.4626 13.55C81.0626 14.0333 81.3626 14.6833 81.3626 15.5C81.3626 16.15 81.1626 16.75 80.7626 17.3C80.3626 17.85 79.8292 18.2917 79.1626 18.625C78.4959 18.9417 77.7542 19.1 76.9376 19.1C75.9376 19.1 75.1209 18.875 74.4876 18.425C74.5042 19.1917 74.7626 19.8083 75.2626 20.275C75.7792 20.7417 76.4376 20.975 77.2376 20.975C77.7209 20.975 78.2126 20.8917 78.7126 20.725C79.2292 20.5417 79.6709 20.3 80.0376 20C80.2709 19.8 80.4876 19.7 80.6876 19.7C80.8542 19.7 80.9876 19.7583 81.0876 19.875C81.2042 19.975 81.2626 20.1083 81.2626 20.275C81.2626 20.6417 80.9459 21.125 80.3126 21.725C79.1959 22.7917 77.8709 23.325 76.3376 23.325ZM76.7126 17.45C77.3126 17.45 77.8126 17.325 78.2126 17.075C78.6126 16.825 78.8126 16.5083 78.8126 16.125C78.8126 15.8083 78.6792 15.5667 78.4126 15.4C78.1459 15.2167 77.7792 15.125 77.3126 15.125C76.6959 15.125 76.1542 15.2917 75.6876 15.625C75.2376 15.9417 74.9126 16.3917 74.7126 16.975C74.9459 17.125 75.2459 17.2417 75.6126 17.325C75.9792 17.4083 76.3459 17.45 76.7126 17.45ZM91.4361 29.9C90.9361 29.9 90.5445 29.7583 90.2611 29.475C89.9778 29.2083 89.8361 28.7167 89.8361 28C89.8361 27.5167 89.8861 26.9083 89.9861 26.175C90.1028 25.4417 90.2361 24.6667 90.3861 23.85C90.5028 23.2 90.6111 22.5167 90.7111 21.8C90.8278 21.0833 90.9195 20.3833 90.9861 19.7C91.0695 19 91.1111 18.375 91.1111 17.825C91.1111 17.1917 91.0361 16.6417 90.8861 16.175C90.7528 15.7083 90.4695 15.4083 90.0361 15.275C89.8695 15.2083 89.7195 15.1333 89.5861 15.05C89.4528 14.9667 89.3861 14.8333 89.3861 14.65C89.3861 14.4167 89.4778 14.1583 89.6611 13.875C89.8445 13.5917 90.1028 13.35 90.4361 13.15C90.7861 12.9333 91.1778 12.825 91.6111 12.825C92.1778 12.825 92.5695 13.025 92.7861 13.425C93.0028 13.8083 93.1111 14.3167 93.1111 14.95C93.1111 15.1333 93.1028 15.325 93.0861 15.525C93.0695 15.7083 93.0445 15.9 93.0111 16.1C93.4945 15.1667 94.1278 14.3833 94.9111 13.75C95.7111 13.1 96.6111 12.775 97.6111 12.775C98.6111 12.775 99.3945 13.1167 99.9611 13.8C100.544 14.4667 100.836 15.375 100.836 16.525C100.836 17.375 100.703 18.2083 100.436 19.025C100.169 19.825 99.7945 20.55 99.3111 21.2C98.8278 21.85 98.2445 22.3667 97.5611 22.75C96.8945 23.1333 96.1445 23.325 95.3111 23.325C94.7111 23.325 94.1861 23.2167 93.7361 23C93.2861 22.8 92.8945 22.5333 92.5611 22.2C92.4945 22.6333 92.4278 23.1583 92.3611 23.775C92.3111 24.3917 92.2861 24.9667 92.2861 25.5C92.2861 26.1167 92.3528 26.6 92.4861 26.95C92.6361 27.3 92.9195 27.5667 93.3361 27.75C93.5195 27.8333 93.6111 27.9667 93.6111 28.15C93.6111 28.2833 93.5445 28.4917 93.4111 28.775C93.2778 29.0583 93.0528 29.3167 92.7361 29.55C92.4361 29.7833 92.0028 29.9 91.4361 29.9ZM95.8861 20.625C96.8361 20.625 97.5695 20.325 98.0861 19.725C98.6028 19.125 98.8611 18.4333 98.8611 17.65C98.8611 16.9667 98.6778 16.4417 98.3111 16.075C97.9445 15.6917 97.4528 15.5 96.8361 15.5C96.2028 15.5 95.6445 15.6917 95.1611 16.075C94.6778 16.4417 94.2611 16.925 93.9111 17.525C93.5778 18.125 93.3028 18.7667 93.0861 19.45C93.9195 20.2333 94.8528 20.625 95.8861 20.625ZM104.268 23.25C103.785 23.25 103.427 23.1167 103.193 22.85C102.96 22.5833 102.843 22.1167 102.843 21.45C102.843 21.1333 102.868 20.725 102.918 20.225C102.968 19.725 103.027 19.1833 103.093 18.6C103.193 17.8833 103.277 17.1333 103.343 16.35C103.427 15.5667 103.468 14.8167 103.468 14.1C103.468 13.0833 103.418 12.0333 103.318 10.95C103.235 9.85 102.985 8.89167 102.568 8.075C102.418 7.74167 102.343 7.5 102.343 7.35C102.343 7.13333 102.435 6.925 102.618 6.725C102.818 6.525 103.06 6.35833 103.343 6.225C103.627 6.075 103.902 6 104.168 6C104.602 6 104.927 6.2 105.143 6.6C105.36 6.98333 105.502 7.51667 105.568 8.2C105.635 8.86667 105.668 9.63333 105.668 10.5C105.668 11.8167 105.61 12.9583 105.493 13.925C105.393 14.8917 105.293 15.7417 105.193 16.475C105.127 16.9583 105.06 17.4167 104.993 17.85C104.943 18.2833 104.918 18.675 104.918 19.025C104.918 19.6083 105.01 20.0333 105.193 20.3C105.393 20.55 105.71 20.8 106.143 21.05C106.26 21.1167 106.343 21.1833 106.393 21.25C106.46 21.3 106.493 21.3833 106.493 21.5C106.493 21.6333 106.427 21.8417 106.293 22.125C106.16 22.4083 105.927 22.6667 105.593 22.9C105.277 23.1333 104.835 23.25 104.268 23.25ZM110.874 23.325C109.874 23.325 109.065 23.0167 108.449 22.4C107.849 21.7667 107.549 20.8667 107.549 19.7C107.549 18.8667 107.707 18.0417 108.024 17.225C108.357 16.3917 108.832 15.6417 109.449 14.975C110.065 14.3083 110.807 13.775 111.674 13.375C112.54 12.975 113.515 12.775 114.599 12.775C115.599 12.775 116.449 12.95 117.149 13.3C117.865 13.6333 118.224 14.0917 118.224 14.675C118.224 14.825 118.207 15.025 118.174 15.275C118.14 15.5083 118.099 15.7 118.049 15.85C117.999 15.9833 117.924 16.1083 117.824 16.225C117.74 16.325 117.624 16.375 117.474 16.375C117.407 16.375 117.282 16.35 117.099 16.3C117.032 16.65 116.982 16.9917 116.949 17.325C116.915 17.6583 116.899 17.9917 116.899 18.325C116.899 18.9583 116.99 19.525 117.174 20.025C117.374 20.5083 117.757 20.8083 118.324 20.925C118.474 20.9583 118.59 21.0083 118.674 21.075C118.774 21.1417 118.824 21.2833 118.824 21.5C118.824 21.6833 118.774 21.9167 118.674 22.2C118.59 22.4833 118.415 22.7417 118.149 22.975C117.899 23.1917 117.532 23.3 117.049 23.3C116.399 23.3 115.899 23.0667 115.549 22.6C115.199 22.1167 115.024 21.4333 115.024 20.55C114.574 21.3667 113.999 22.0333 113.299 22.55C112.615 23.0667 111.807 23.325 110.874 23.325ZM111.674 20.725C112.34 20.725 112.924 20.5167 113.424 20.1C113.94 19.6833 114.34 19.1583 114.624 18.525C114.807 18.125 114.949 17.6917 115.049 17.225C115.149 16.7417 115.215 16.2667 115.249 15.8C114.965 15.6667 114.64 15.5583 114.274 15.475C113.907 15.3917 113.524 15.35 113.124 15.35C112.107 15.35 111.265 15.65 110.599 16.25C109.949 16.85 109.624 17.6 109.624 18.5C109.624 19.1667 109.807 19.7083 110.174 20.125C110.54 20.525 111.04 20.725 111.674 20.725ZM120.738 29.9C120.055 29.9 119.471 29.7167 118.988 29.35C118.488 28.9833 118.238 28.4917 118.238 27.875C118.238 27.3917 118.388 26.975 118.688 26.625C118.971 26.2917 119.33 26.125 119.763 26.125C119.963 26.125 120.105 26.1583 120.188 26.225C120.271 26.2917 120.338 26.3667 120.388 26.45C120.521 26.6667 120.671 26.85 120.838 27C121.021 27.1667 121.263 27.25 121.563 27.25C121.963 27.25 122.346 27.1083 122.713 26.825C123.096 26.5417 123.446 26.2167 123.763 25.85C124.046 25.5333 124.388 25.075 124.788 24.475C125.188 23.8917 125.588 23.225 125.988 22.475C125.621 22.7917 125.28 23.0167 124.963 23.15C124.646 23.3 124.346 23.375 124.063 23.375C123.713 23.375 123.371 23.25 123.038 23C122.705 22.7333 122.496 22.2417 122.413 21.525C122.363 20.975 122.263 20.3667 122.113 19.7C121.98 19.0333 121.805 18.3917 121.588 17.775C121.388 17.1417 121.138 16.6083 120.838 16.175C120.721 15.975 120.588 15.825 120.438 15.725C120.288 15.625 120.071 15.5583 119.788 15.525C119.588 15.5083 119.455 15.45 119.388 15.35C119.338 15.25 119.313 15.0917 119.313 14.875C119.313 14.275 119.48 13.7917 119.813 13.425C120.146 13.0583 120.596 12.875 121.163 12.875C121.846 12.875 122.338 13.1417 122.638 13.675C122.938 14.1917 123.196 14.825 123.413 15.575C123.496 15.875 123.58 16.275 123.663 16.775C123.763 17.2583 123.846 17.7833 123.913 18.35C123.996 18.9167 124.055 19.4583 124.088 19.975C124.105 20.3417 124.313 20.525 124.713 20.525C125.246 20.525 125.755 20.3583 126.238 20.025C126.721 19.6917 127.113 19.2583 127.413 18.725C127.73 18.1917 127.888 17.6333 127.888 17.05C127.888 16.7167 127.846 16.4167 127.763 16.15C127.68 15.8833 127.538 15.65 127.338 15.45C127.171 15.25 127.038 15.0917 126.938 14.975C126.838 14.8417 126.788 14.6917 126.788 14.525C126.788 14.2417 126.921 13.975 127.188 13.725C127.455 13.475 127.771 13.2667 128.138 13.1C128.521 12.9333 128.855 12.85 129.138 12.85C129.638 12.85 129.971 13.0917 130.138 13.575C130.305 14.0417 130.346 14.5583 130.263 15.125C130.163 15.9083 129.963 16.8333 129.663 17.9C129.363 18.9667 128.971 20.0833 128.488 21.25C128.021 22.4167 127.48 23.5417 126.863 24.625C126.263 25.725 125.621 26.6833 124.938 27.5C124.355 28.2167 123.705 28.7917 122.988 29.225C122.271 29.675 121.521 29.9 120.738 29.9ZM133.64 23.25C133.156 23.25 132.798 23.1167 132.565 22.85C132.331 22.5833 132.215 22.1167 132.215 21.45C132.215 21.1333 132.24 20.725 132.29 20.225C132.34 19.725 132.398 19.1833 132.465 18.6C132.565 17.8833 132.648 17.1333 132.715 16.35C132.798 15.5667 132.84 14.8167 132.84 14.1C132.84 13.0833 132.79 12.0333 132.69 10.95C132.606 9.85 132.356 8.89167 131.94 8.075C131.79 7.74167 131.715 7.5 131.715 7.35C131.715 7.13333 131.806 6.925 131.99 6.725C132.19 6.525 132.431 6.35833 132.715 6.225C132.998 6.075 133.273 6 133.54 6C133.973 6 134.298 6.2 134.515 6.6C134.731 6.98333 134.873 7.51667 134.94 8.2C135.006 8.86667 135.04 9.63333 135.04 10.5C135.04 11.8167 134.981 12.9583 134.865 13.925C134.765 14.8917 134.665 15.7417 134.565 16.475C134.498 16.9583 134.431 17.4167 134.365 17.85C134.315 18.2833 134.29 18.675 134.29 19.025C134.29 19.6083 134.381 20.0333 134.565 20.3C134.765 20.55 135.081 20.8 135.515 21.05C135.631 21.1167 135.715 21.1833 135.765 21.25C135.831 21.3 135.865 21.3833 135.865 21.5C135.865 21.6333 135.798 21.8417 135.665 22.125C135.531 22.4083 135.298 22.6667 134.965 22.9C134.648 23.1333 134.206 23.25 133.64 23.25ZM139.245 10.575C138.778 10.5583 138.403 10.4167 138.12 10.15C137.836 9.88333 137.695 9.50833 137.695 9.025C137.711 8.50833 137.886 8.09167 138.22 7.775C138.553 7.44167 138.978 7.28333 139.495 7.3C139.978 7.31667 140.353 7.45833 140.62 7.725C140.903 7.99167 141.036 8.36667 141.02 8.85C141.003 9.35 140.836 9.76667 140.52 10.1C140.203 10.4167 139.778 10.575 139.245 10.575ZM139.27 23.25C138.77 23.25 138.378 23.1167 138.095 22.85C137.811 22.5667 137.67 22.0917 137.67 21.425C137.67 21.0417 137.703 20.6667 137.77 20.3C137.853 19.9333 137.945 19.575 138.045 19.225C138.161 18.8583 138.253 18.4833 138.32 18.1C138.403 17.7167 138.445 17.3083 138.445 16.875C138.445 16.575 138.403 16.2917 138.32 16.025C138.236 15.7417 138.053 15.5333 137.77 15.4C137.553 15.2833 137.361 15.1667 137.195 15.05C137.045 14.9167 136.97 14.75 136.97 14.55C136.97 14.3167 137.078 14.0667 137.295 13.8C137.511 13.5333 137.795 13.3083 138.145 13.125C138.511 12.925 138.886 12.825 139.27 12.825C139.686 12.825 139.986 12.9333 140.17 13.15C140.37 13.3667 140.503 13.6417 140.57 13.975C140.636 14.3083 140.67 14.65 140.67 15C140.67 15.5333 140.628 16.0583 140.545 16.575C140.461 17.075 140.378 17.5417 140.295 17.975C140.228 18.2917 140.178 18.5833 140.145 18.85C140.111 19.1167 140.095 19.3667 140.095 19.6C140.095 20.0167 140.195 20.3333 140.395 20.55C140.595 20.75 140.878 20.9417 141.245 21.125C141.395 21.2083 141.47 21.3333 141.47 21.5C141.47 21.6333 141.403 21.8417 141.27 22.125C141.136 22.4083 140.903 22.6667 140.57 22.9C140.253 23.1333 139.82 23.25 139.27 23.25ZM146.313 23.325C145.696 23.325 145.121 23.2333 144.588 23.05C144.054 22.8667 143.621 22.6083 143.288 22.275C142.954 21.9417 142.788 21.5417 142.788 21.075C142.788 20.825 142.846 20.5917 142.963 20.375C143.096 20.1417 143.304 20.025 143.588 20.025C143.738 20.025 143.896 20.0667 144.063 20.15C144.363 20.3167 144.746 20.475 145.213 20.625C145.679 20.7583 146.171 20.825 146.688 20.825C147.271 20.825 147.788 20.7417 148.238 20.575C148.688 20.4083 148.913 20.175 148.913 19.875C148.913 19.6417 148.738 19.475 148.388 19.375C148.054 19.275 147.488 19.1667 146.688 19.05C146.138 18.95 145.604 18.8333 145.088 18.7C144.571 18.5667 144.146 18.3417 143.813 18.025C143.479 17.6917 143.313 17.2083 143.313 16.575C143.313 15.9583 143.479 15.3667 143.813 14.8C144.163 14.2167 144.679 13.7333 145.362 13.35C146.046 12.9667 146.879 12.775 147.863 12.775C148.379 12.775 148.879 12.8333 149.363 12.95C149.846 13.0667 150.246 13.2417 150.563 13.475C150.879 13.7083 151.038 14 151.038 14.35C151.038 14.65 150.929 14.925 150.713 15.175C150.513 15.425 150.271 15.6333 149.988 15.8C149.721 15.95 149.496 16.025 149.313 16.025C149.179 16.025 149.021 15.9333 148.838 15.75C148.554 15.5167 148.238 15.3583 147.888 15.275C147.554 15.175 147.221 15.125 146.888 15.125C146.388 15.125 145.979 15.2 145.663 15.35C145.363 15.5 145.213 15.6917 145.213 15.925C145.213 16.1417 145.338 16.3167 145.588 16.45C145.854 16.5833 146.179 16.6833 146.563 16.75C146.946 16.8 147.313 16.85 147.663 16.9C148.629 17.0333 149.396 17.2667 149.963 17.6C150.529 17.9167 150.813 18.4833 150.813 19.3C150.813 19.9333 150.629 20.5667 150.263 21.2C149.913 21.8167 149.396 22.325 148.713 22.725C148.046 23.125 147.246 23.325 146.313 23.325ZM156.29 23.325C155.273 23.325 154.54 22.9917 154.09 22.325C153.657 21.6417 153.44 20.7667 153.44 19.7C153.44 19.3167 153.457 18.9417 153.49 18.575C153.54 18.2083 153.59 17.8417 153.64 17.475C153.69 17.1083 153.74 16.75 153.79 16.4C153.84 16.05 153.882 15.7167 153.915 15.4C153.565 15.5 153.215 15.55 152.865 15.55C152.498 15.55 152.315 15.4 152.315 15.1C152.315 14.7833 152.457 14.4 152.74 13.95C153.023 13.4833 153.373 13.025 153.79 12.575C154.223 12.125 154.648 11.75 155.065 11.45C155.498 11.1333 155.865 10.975 156.165 10.975C156.532 10.975 156.715 11.2917 156.715 11.925C156.715 12.0917 156.698 12.2667 156.665 12.45C156.648 12.6167 156.623 12.7917 156.59 12.975C156.907 12.9083 157.223 12.85 157.54 12.8C157.873 12.75 158.19 12.725 158.49 12.725C158.873 12.725 159.165 12.7917 159.365 12.925C159.582 13.0583 159.69 13.3167 159.69 13.7C159.69 14.1 159.59 14.5 159.39 14.9C159.207 15.3 158.998 15.5 158.765 15.5C158.715 15.5 158.632 15.4917 158.515 15.475C158.398 15.4583 158.257 15.4333 158.09 15.4C157.873 15.35 157.598 15.3 157.265 15.25C156.932 15.2 156.532 15.175 156.065 15.175C155.948 15.6917 155.84 16.225 155.74 16.775C155.657 17.3083 155.615 17.7917 155.615 18.225C155.615 19.1917 155.857 19.85 156.34 20.2C156.823 20.55 157.523 20.725 158.44 20.725C158.723 20.725 158.923 20.775 159.04 20.875C159.157 20.9583 159.215 21.1167 159.215 21.35C159.215 21.9 158.932 22.3667 158.365 22.75C157.798 23.1333 157.107 23.325 156.29 23.325Z" fill="#D9D9D9"/>
</svg>
