<svg width="74" height="40" viewBox="0 0 74 40" fill="none" xmlns="http://www.w3.org/2000/svg">
<rect y="3" width="74" height="34" rx="10" fill="#544FA3"/>
<path d="M19.051 30.8C18.7343 30.8 18.4926 30.7167 18.326 30.55C18.1593 30.4 18.0843 30.1167 18.101 29.7C18.101 29.45 18.1176 29 18.151 28.35C18.201 27.7167 18.2593 26.9583 18.326 26.075C18.4093 25.2083 18.4926 24.3 18.576 23.35C18.676 22.4 18.7676 21.4833 18.851 20.6C18.9343 19.7167 19.0093 18.9583 19.076 18.325C18.9093 18.3417 18.751 18.3583 18.601 18.375C18.451 18.375 18.301 18.3917 18.151 18.425C17.9843 18.4583 17.8593 18.475 17.776 18.475C17.576 18.475 17.4426 18.3583 17.376 18.125C17.3093 17.875 17.276 17.6417 17.276 17.425C17.276 17.175 17.3093 16.9667 17.376 16.8C17.4593 16.6333 17.626 16.5 17.876 16.4C18.026 16.3333 18.2176 16.275 18.451 16.225C18.701 16.175 18.9593 16.1333 19.226 16.1C19.3093 15.1167 19.4343 14.1833 19.601 13.3C19.7843 12.4167 20.0593 11.6667 20.426 11.05C20.8093 10.4167 21.326 9.91667 21.976 9.55C22.6426 9.18333 23.3176 9 24.001 9C24.501 9 24.9676 9.1 25.401 9.3C25.851 9.48333 26.2093 9.75 26.476 10.1C26.7593 10.4333 26.901 10.8167 26.901 11.25C26.901 11.5667 26.8176 11.825 26.651 12.025C26.501 12.225 26.326 12.325 26.126 12.325C26.0426 12.325 25.951 12.3083 25.851 12.275C25.751 12.2417 25.651 12.2083 25.551 12.175C25.3676 12.0917 25.1343 12.025 24.851 11.975C24.5843 11.9083 24.2926 11.875 23.976 11.875C23.326 11.875 22.8093 12.05 22.426 12.4C22.0593 12.75 21.776 13.2333 21.576 13.85C21.3926 14.45 21.2426 15.15 21.126 15.95C21.476 15.9167 21.851 15.8833 22.251 15.85C22.651 15.8167 22.976 15.8 23.226 15.8C23.626 15.8 23.9343 15.8667 24.151 16C24.3843 16.1167 24.501 16.35 24.501 16.7C24.501 16.9167 24.4593 17.175 24.376 17.475C24.3093 17.7583 24.201 18.0167 24.051 18.25C23.901 18.4667 23.726 18.575 23.526 18.575C23.4426 18.575 23.301 18.55 23.101 18.5C22.8843 18.4667 22.601 18.425 22.251 18.375C21.901 18.325 21.4593 18.2917 20.926 18.275C20.8593 18.9917 20.801 19.7917 20.751 20.675C20.7176 21.5417 20.701 22.4583 20.701 23.425C20.701 24.475 20.7343 25.3833 20.801 26.15C20.8676 26.9167 20.9343 27.5417 21.001 28.025C21.0343 28.2417 21.0593 28.4333 21.076 28.6C21.0926 28.7667 21.101 28.9 21.101 29C21.101 29.4833 20.9843 29.85 20.751 30.1C20.5176 30.3667 20.2426 30.55 19.926 30.65C19.6093 30.75 19.3176 30.8 19.051 30.8ZM26.9784 26.25C26.4951 26.25 26.1367 26.1167 25.9034 25.85C25.6701 25.5833 25.5534 25.1167 25.5534 24.45C25.5534 24.1333 25.5784 23.725 25.6284 23.225C25.6784 22.725 25.7367 22.1833 25.8034 21.6C25.9034 20.8833 25.9867 20.1333 26.0534 19.35C26.1367 18.5667 26.1784 17.8167 26.1784 17.1C26.1784 16.0833 26.1284 15.0333 26.0284 13.95C25.9451 12.85 25.6951 11.8917 25.2784 11.075C25.1284 10.7417 25.0534 10.5 25.0534 10.35C25.0534 10.1333 25.1451 9.925 25.3284 9.725C25.5284 9.525 25.7701 9.35833 26.0534 9.225C26.3367 9.075 26.6117 9 26.8784 9C27.3117 9 27.6367 9.2 27.8534 9.6C28.0701 9.98333 28.2117 10.5167 28.2784 11.2C28.3451 11.8667 28.3784 12.6333 28.3784 13.5C28.3784 14.8167 28.3201 15.9583 28.2034 16.925C28.1034 17.8917 28.0034 18.7417 27.9034 19.475C27.8367 19.9583 27.7701 20.4167 27.7034 20.85C27.6534 21.2833 27.6284 21.675 27.6284 22.025C27.6284 22.6083 27.7201 23.0333 27.9034 23.3C28.1034 23.55 28.4201 23.8 28.8534 24.05C28.9701 24.1167 29.0534 24.1833 29.1034 24.25C29.1701 24.3 29.2034 24.3833 29.2034 24.5C29.2034 24.6333 29.1367 24.8417 29.0034 25.125C28.8701 25.4083 28.6367 25.6667 28.3034 25.9C27.9867 26.1333 27.5451 26.25 26.9784 26.25ZM34.4335 26.325C33.2835 26.325 32.3585 26.0167 31.6585 25.4C30.9752 24.7667 30.6335 23.8417 30.6335 22.625C30.6335 22.0583 30.7085 21.5083 30.8585 20.975C31.0252 20.4417 31.2419 19.9417 31.5085 19.475C31.2419 19.6417 31.0419 19.725 30.9085 19.725C30.7085 19.725 30.5669 19.6167 30.4835 19.4C30.4169 19.1667 30.3835 18.9417 30.3835 18.725C30.3835 18.3417 30.4585 18.0417 30.6085 17.825C30.7752 17.5917 30.9335 17.4167 31.0835 17.3C31.4335 17 31.9835 16.675 32.7335 16.325C33.4835 15.9583 34.3835 15.775 35.4335 15.775C36.8669 15.775 37.9752 16.175 38.7585 16.975C39.5585 17.775 39.9585 18.8917 39.9585 20.325C39.9585 21.4417 39.7252 22.4583 39.2585 23.375C38.7919 24.275 38.1419 24.9917 37.3085 25.525C36.4919 26.0583 35.5335 26.325 34.4335 26.325ZM35.2085 23.775C36.0419 23.775 36.7419 23.5167 37.3085 23C37.8919 22.4667 38.1835 21.7667 38.1835 20.9C38.1835 20 37.8919 19.3583 37.3085 18.975C36.7252 18.5917 36.0502 18.4 35.2835 18.4C34.9335 18.4 34.6169 18.4333 34.3335 18.5C34.0502 18.5667 33.7835 18.65 33.5335 18.75C33.3002 19.0833 33.0919 19.4583 32.9085 19.875C32.7252 20.2917 32.6335 20.75 32.6335 21.25C32.6335 22.0833 32.8835 22.7167 33.3835 23.15C33.8835 23.5667 34.4919 23.775 35.2085 23.775ZM44.8545 26.35C44.3878 26.35 43.9878 26.2167 43.6545 25.95C43.3378 25.6667 43.1545 25.15 43.1045 24.4C43.0712 23.8333 42.9962 23.2 42.8795 22.5C42.7795 21.8 42.6545 21.1417 42.5045 20.525C42.3545 19.9083 42.1795 19.4417 41.9795 19.125C41.8628 18.9417 41.7295 18.8083 41.5795 18.725C41.4462 18.625 41.2378 18.5583 40.9545 18.525C40.6545 18.5083 40.5045 18.2917 40.5045 17.875C40.5045 17.1917 40.6878 16.6917 41.0545 16.375C41.4212 16.0417 41.8378 15.875 42.3045 15.875C42.8045 15.875 43.2128 16.0417 43.5295 16.375C43.8462 16.6917 44.0878 17.125 44.2545 17.675C44.4378 18.2083 44.5628 18.8083 44.6295 19.475C44.7128 20.1417 44.7545 20.8167 44.7545 21.5C44.7545 21.75 44.7462 22 44.7295 22.25C44.7295 22.4833 44.7295 22.7167 44.7295 22.95C44.7295 23.1167 44.7628 23.2583 44.8295 23.375C44.8962 23.475 45.0628 23.525 45.3295 23.525C45.6962 23.525 46.1295 23.4333 46.6295 23.25C47.1295 23.05 47.5628 22.725 47.9295 22.275C48.3128 21.825 48.5045 21.225 48.5045 20.475C48.5045 20.0917 48.4462 19.775 48.3295 19.525C48.2128 19.2583 48.0545 19.0083 47.8545 18.775C47.7878 18.6917 47.7295 18.6083 47.6795 18.525C47.6295 18.4417 47.6045 18.3417 47.6045 18.225C47.6045 17.9083 47.7295 17.6583 47.9795 17.475C48.2462 17.275 48.5378 17.1333 48.8545 17.05C49.1878 16.95 49.4628 16.9 49.6795 16.9C49.8962 16.9 50.0628 16.9583 50.1795 17.075C50.3128 17.175 50.4128 17.3833 50.4795 17.7C50.5462 17.9167 50.5962 18.1583 50.6295 18.425C50.6628 18.675 50.6795 18.9667 50.6795 19.3C50.6795 19.8167 50.6545 20.2333 50.6045 20.55C50.5712 20.8667 50.5295 21.15 50.4795 21.4C50.4295 21.6167 50.3878 21.8333 50.3545 22.05C50.3378 22.25 50.3295 22.4917 50.3295 22.775C50.3295 23.075 50.3878 23.275 50.5045 23.375C50.6212 23.475 50.8045 23.525 51.0545 23.525C52.0045 23.525 52.7795 23.2 53.3795 22.55C53.9795 21.8833 54.2795 21.075 54.2795 20.125C54.2795 19.7917 54.2295 19.4833 54.1295 19.2C54.0295 18.9 53.8545 18.6167 53.6045 18.35C53.4712 18.1833 53.3628 18.05 53.2795 17.95C53.1962 17.8333 53.1545 17.6917 53.1545 17.525C53.1545 17.225 53.2878 16.95 53.5545 16.7C53.8378 16.45 54.1628 16.25 54.5295 16.1C54.9128 15.9333 55.2545 15.85 55.5545 15.85C56.0045 15.85 56.2962 16.0583 56.4295 16.475C56.5628 16.8917 56.6295 17.3667 56.6295 17.9C56.6295 18.8 56.4962 19.7417 56.2295 20.725C55.9795 21.6917 55.6128 22.6083 55.1295 23.475C54.6462 24.325 54.0545 25.0167 53.3545 25.55C52.6545 26.0833 51.8628 26.35 50.9795 26.35C50.0795 26.35 49.4628 26.0917 49.1295 25.575C48.7962 25.0583 48.6545 24.4333 48.7045 23.7C48.2045 24.4667 47.6128 25.1 46.9295 25.6C46.2628 26.1 45.5712 26.35 44.8545 26.35Z" fill="#D9D9D9"/>
</svg>
