<?xml version="1.0" encoding="UTF-8"?>
<svg version="1.1" xmlns="http://www.w3.org/2000/svg" width="541" height="92">
<path d="M0 0 C178.53 0 357.06 0 541 0 C541 30.36 541 60.72 541 92 C362.47 92 183.94 92 0 92 C0 61.64 0 31.28 0 0 Z " fill="#BFBEDF" transform="translate(0,0)"/>
<path d="M0 0 C0.85233215 -0.0080365 1.70466431 -0.016073 2.58282471 -0.02435303 C18.31070352 -0.13708815 33.93494814 1.27539588 49 6.0625 C49.81525146 6.31523682 50.63050293 6.56797363 51.47045898 6.82836914 C64.34582093 10.96275088 76.9808673 16.36111156 87.9375 24.375 C88.63875 24.88160156 89.34 25.38820313 90.0625 25.91015625 C101.74662227 35.19812063 112.85807038 53.55906396 114.9375 68.375 C110.96175126 67.83894399 109.3994836 66.03239793 106.75 63.125 C74.65059197 30.17839351 28.56177372 16.71484472 -15.59472656 9.765625 C-17.76169705 9.42261424 -19.92380306 9.05948012 -22.0859375 8.6875 C-68.76757415 1.13451609 -121.753534 26.76469933 -163.875 44 C-182.07286374 51.44151045 -200.02812927 58.36858396 -219.0625 63.375 C-219.8040332 63.57077637 -220.54556641 63.76655273 -221.30957031 63.96826172 C-225.88035105 65.16477382 -230.46441934 66.28818094 -235.0625 67.375 C-236.11308594 67.62894531 -237.16367188 67.88289063 -238.24609375 68.14453125 C-246.10695383 69.9437734 -254.03723567 71.24086729 -262 72.5 C-263.05944824 72.67080078 -264.11889648 72.84160156 -265.21044922 73.01757812 C-278.62580564 75.07800613 -292.04966555 75.58017568 -305.59838867 75.61523438 C-307.89081445 75.62506784 -310.18238711 75.65630335 -312.47460938 75.6875 C-323.76806251 75.77062301 -332.68371966 73.97647438 -342.6875 68.6875 C-343.31011719 68.36716797 -343.93273437 68.04683594 -344.57421875 67.71679688 C-346.07421436 66.94372222 -347.56897371 66.16050014 -349.0625 65.375 C-349.0625 64.385 -349.0625 63.395 -349.0625 62.375 C-344.58024283 62.98737669 -340.95144227 64.78823621 -337 66.875 C-330.6120851 70.2271408 -325.93471086 71.53177037 -318.7109375 71.578125 C-317.6266597 71.58857849 -317.6266597 71.58857849 -316.52047729 71.59924316 C-314.1594263 71.61674479 -311.79861346 71.62297901 -309.4375 71.625 C-308.6290564 71.62600708 -307.82061279 71.62701416 -306.9876709 71.62805176 C-292.49781877 71.61587361 -278.39771933 70.55404726 -264.0625 68.375 C-263.08522949 68.23578125 -262.10795898 68.0965625 -261.10107422 67.953125 C-224.21941669 62.67646461 -190.4193365 50.69246308 -156.13418579 36.69338989 C-105.71078826 16.11014242 -54.88751581 0.28786505 0 0 Z " fill="#BDBBDE" transform="translate(387.0625,15.625)"/>
<path d="M0 0 C0.85233215 -0.0080365 1.70466431 -0.016073 2.58282471 -0.02435303 C18.31070352 -0.13708815 33.93494814 1.27539588 49 6.0625 C49.81525146 6.31523682 50.63050293 6.56797363 51.47045898 6.82836914 C64.34582093 10.96275088 76.9808673 16.36111156 87.9375 24.375 C88.63875 24.88160156 89.34 25.38820313 90.0625 25.91015625 C101.74662227 35.19812063 112.85807038 53.55906396 114.9375 68.375 C113.0234375 68.1171875 113.0234375 68.1171875 110.9375 67.375 C110.1015625 65.6953125 110.1015625 65.6953125 109.5625 63.5 C107.83550501 57.631931 105.02587888 52.63104386 101.9375 47.375 C101.38835937 46.43011719 100.83921875 45.48523437 100.2734375 44.51171875 C89.00422262 25.90979556 69.70696715 16.70036489 49.625 10.125 C48.57965088 9.77381104 48.57965088 9.77381104 47.51318359 9.41552734 C33.024752 4.90708164 18.3770427 3.90052083 3.30664062 4.03881836 C0.5713125 4.06242395 -2.16303276 4.05934518 -4.8984375 4.05273438 C-22.53170172 4.08097604 -39.81662785 5.64741368 -57.0625 9.375 C-57.98740234 9.57077637 -58.91230469 9.76655273 -59.86523438 9.96826172 C-76.57287117 13.53664996 -92.81075063 18.12640318 -109.0625 23.375 C-110.41242034 23.79926068 -111.76262917 24.22260592 -113.11328125 24.64453125 C-130.34938074 30.16867186 -147.13767295 37.1416327 -163.875 44 C-182.07234449 51.4424773 -200.02831201 58.36863203 -219.0625 63.375 C-219.8040332 63.57077637 -220.54556641 63.76655273 -221.30957031 63.96826172 C-225.88035105 65.16477382 -230.46441934 66.28818094 -235.0625 67.375 C-236.11308594 67.62894531 -237.16367188 67.88289063 -238.24609375 68.14453125 C-246.10695383 69.9437734 -254.03723567 71.24086729 -262 72.5 C-263.05944824 72.67080078 -264.11889648 72.84160156 -265.21044922 73.01757812 C-278.62580564 75.07800613 -292.04966555 75.58017568 -305.59838867 75.61523438 C-307.89081445 75.62506784 -310.18238711 75.65630335 -312.47460938 75.6875 C-323.76806251 75.77062301 -332.68371966 73.97647438 -342.6875 68.6875 C-343.31011719 68.36716797 -343.93273437 68.04683594 -344.57421875 67.71679688 C-346.07421436 66.94372222 -347.56897371 66.16050014 -349.0625 65.375 C-349.0625 64.385 -349.0625 63.395 -349.0625 62.375 C-344.58024283 62.98737669 -340.95144227 64.78823621 -337 66.875 C-330.6120851 70.2271408 -325.93471086 71.53177037 -318.7109375 71.578125 C-317.6266597 71.58857849 -317.6266597 71.58857849 -316.52047729 71.59924316 C-314.1594263 71.61674479 -311.79861346 71.62297901 -309.4375 71.625 C-308.6290564 71.62600708 -307.82061279 71.62701416 -306.9876709 71.62805176 C-292.49781877 71.61587361 -278.39771933 70.55404726 -264.0625 68.375 C-263.08522949 68.23578125 -262.10795898 68.0965625 -261.10107422 67.953125 C-224.21941669 62.67646461 -190.4193365 50.69246308 -156.13418579 36.69338989 C-105.71078826 16.11014242 -54.88751581 0.28786505 0 0 Z " fill="#26136B" transform="translate(387.0625,15.625)"/>
<path d="M0 0 C1.56966 0.00503356 3.1393216 0.00959313 4.70898438 0.01367188 C8.49353017 0.02451088 12.27799656 0.04166905 16.0625 0.0625 C16.0625 0.3925 16.0625 0.7225 16.0625 1.0625 C14.48240636 1.4108671 12.89807736 1.74000969 11.3125 2.0625 C9.98992187 2.3409375 9.98992187 2.3409375 8.640625 2.625 C5.56027014 3.00163728 2.75281663 3.0876076 -0.33984375 3.0546875 C-43.04211888 2.72544868 -84.50334065 14.56201756 -124.9375 27.0625 C-146.52032694 33.73369478 -167.78165434 39.43938315 -190.02001953 43.51318359 C-192.71880587 44.02132328 -195.40301474 44.5772012 -198.08984375 45.14453125 C-207.34268742 46.99232829 -216.52254857 47.24453889 -225.9375 47.25 C-227.04867187 47.26224609 -228.15984375 47.27449219 -229.3046875 47.28710938 C-246.52785488 47.3175032 -262.97513654 42.63761588 -275.8125 30.6875 C-280.28622119 25.91193738 -283.9375 20.7042035 -283.9375 14.0625 C-280.9375 15.0625 -280.9375 15.0625 -279.6484375 17.28515625 C-279.20757812 18.22230469 -278.76671875 19.15945312 -278.3125 20.125 C-272.28126233 31.50914543 -262.59649954 36.78798397 -250.64453125 40.83984375 C-206.78734638 52.83272664 -155.80448586 31.77239115 -114.02587891 19.63574219 C-76.22095809 8.65852609 -39.6136486 -0.2248606 0 0 Z " fill="#7675B7" transform="translate(321.9375,18.9375)"/>
<path d="M0 0 C0.94649414 0.51965332 0.94649414 0.51965332 1.91210938 1.04980469 C11.09169351 6.16360972 19.40657971 12.05903042 27.49316406 18.76025391 C28.84997411 19.87656651 30.23218143 20.96183715 31.6171875 22.04296875 C36.76506635 26.19241558 36.76506635 26.19241558 38 30.4375 C38 31.283125 38 32.12875 38 33 C36.6696875 31.8553125 36.6696875 31.8553125 35.3125 30.6875 C34.34763672 29.86572266 34.34763672 29.86572266 33.36328125 29.02734375 C31.62048735 27.53228584 29.89057731 26.0221778 28.16796875 24.50390625 C-11.64425856 -10.30744794 -62.76029267 -20.9740063 -114 -27 C-114 -27.33 -114 -27.66 -114 -28 C-77.46632426 -34.09670258 -31.63389008 -17.39371215 0 0 Z " fill="#7472B5" transform="translate(460,49)"/>
<path d="M0 0 C0.74334595 0.00141495 1.48669189 0.0028299 2.25256348 0.00428772 C4.59550229 0.00982516 6.93834073 0.02236534 9.28125 0.03515625 C10.88281111 0.04017936 12.48437373 0.04474083 14.0859375 0.04882812 C17.98441288 0.05977398 21.8828145 0.07699429 25.78125 0.09765625 C25.78125 0.42765625 25.78125 0.75765625 25.78125 1.09765625 C16.54529611 3.29604377 7.5140303 3.33418867 -1.90625 3.22265625 C-3.3977804 3.21259917 -4.88931742 3.20347817 -6.38085938 3.1953125 C-9.99362974 3.17353169 -13.60614593 3.13915475 -17.21875 3.09765625 C-16.88875 2.43765625 -16.55875 1.77765625 -16.21875 1.09765625 C-10.79426262 0.15165491 -5.49405134 -0.04036964 0 0 Z " fill="#706DB3" transform="translate(312.21875,18.90234375)"/>
<path d="M0 0 C0.495 0.99 0.495 0.99 1 2 C-3.37392109 2.67387598 -7.74929306 3.33782758 -12.125 4 C-13.3625 4.19078125 -14.6 4.3815625 -15.875 4.578125 C-17.07382812 4.75859375 -18.27265625 4.9390625 -19.5078125 5.125 C-20.60754395 5.29257812 -21.70727539 5.46015625 -22.84033203 5.6328125 C-25.92631942 5.99143752 -28.89654724 6.06542193 -32 6 C-30 3 -30 3 -26.4375 1.9375 C-21.71798167 1.02752751 -16.95476579 0.41239487 -12.1875 -0.1875 C-11.07556274 -0.33167358 -11.07556274 -0.33167358 -9.94116211 -0.47875977 C-2.9724521 -1.29530028 -2.9724521 -1.29530028 0 0 Z " fill="#1C0964" transform="translate(359,18)"/>
<path d="M0 0 C0.33 0.66 0.66 1.32 1 2 C-1.41540306 2.98238408 -3.83221822 3.96100218 -6.25 4.9375 C-6.93191406 5.21529297 -7.61382812 5.49308594 -8.31640625 5.77929688 C-11.51923638 7.06975756 -14.63837534 8.21800044 -18 9 C-18 7.68 -18 6.36 -18 5 C-15.56686628 3.96748938 -13.12943108 2.94880479 -10.6875 1.9375 C-9.65206055 1.49567383 -9.65206055 1.49567383 -8.59570312 1.04492188 C-3.33984375 -1.11328125 -3.33984375 -1.11328125 0 0 Z " fill="#2A196E" transform="translate(249,47)"/>
<path d="M0 0 C1.32 0.99 2.64 1.98 4 3 C-0.62 3.33 -5.24 3.66 -10 4 C-9.67 3.01 -9.34 2.02 -9 1 C-5.94306678 -0.52846661 -3.37015453 -0.23242445 0 0 Z " fill="#7A78B9" transform="translate(296,20)"/>
<path d="M0 0 C-0.33 0.66 -0.66 1.32 -1 2 C-3.28515625 2.6328125 -3.28515625 2.6328125 -6.0625 3.125 C-6.98160156 3.29257813 -7.90070313 3.46015625 -8.84765625 3.6328125 C-9.91306641 3.81457031 -9.91306641 3.81457031 -11 4 C-10.67 3.01 -10.34 2.02 -10 1 C-3.84210526 -1.28070175 -3.84210526 -1.28070175 0 0 Z " fill="#1C0964" transform="translate(150,81)"/>
<path d="M0 0 C3.96 0 7.92 0 12 0 C8.81237635 2.12508244 6.73487777 2.5020163 3 3 C3 2.34 3 1.68 3 1 C2.01 0.67 1.02 0.34 0 0 Z " fill="#9A98C8" transform="translate(315,21)"/>
<path d="M0 0 C-0.99 1.485 -0.99 1.485 -2 3 C-5.125 3.1875 -5.125 3.1875 -8 3 C-7.67 2.01 -7.34 1.02 -7 0 C-2.25 -1.125 -2.25 -1.125 0 0 Z " fill="#231069" transform="translate(178,74)"/>
<path d="M0 0 C1.98 0 3.96 0 6 0 C5.67 0.99 5.34 1.98 5 3 C3.02 3.33 1.04 3.66 -1 4 C-0.67 2.68 -0.34 1.36 0 0 Z " fill="#24136B" transform="translate(338,19)"/>
<path d="M0 0 C3 1 3 1 4 3 C1.69 3.66 -0.62 4.32 -3 5 C-2.625 3.0625 -2.625 3.0625 -2 1 C-1.34 0.67 -0.68 0.34 0 0 Z " fill="#2B196F" transform="translate(262,40)"/>
<path d="M0 0 C1.65 0 3.3 0 5 0 C4.34 1.32 3.68 2.64 3 4 C1.68 4 0.36 4 -1 4 C-0.67 2.68 -0.34 1.36 0 0 Z " fill="#322174" transform="translate(135,82)"/>
</svg>
