<svg width="74" height="40" viewBox="0 0 74 40" fill="none" xmlns="http://www.w3.org/2000/svg">
<rect y="3" width="74" height="34" rx="10" fill="#919191"/>
<path d="M19.5088 26.325C18.8921 26.325 18.3171 26.2333 17.7838 26.05C17.2505 25.8667 16.8171 25.6083 16.4838 25.275C16.1505 24.9417 15.9838 24.5417 15.9838 24.075C15.9838 23.825 16.0421 23.5917 16.1588 23.375C16.2921 23.1417 16.5005 23.025 16.7838 23.025C16.9338 23.025 17.0921 23.0667 17.2588 23.15C17.5588 23.3167 17.9421 23.475 18.4088 23.625C18.8755 23.7583 19.3671 23.825 19.8838 23.825C20.4671 23.825 20.9838 23.7417 21.4338 23.575C21.8838 23.4083 22.1088 23.175 22.1088 22.875C22.1088 22.6417 21.9338 22.475 21.5838 22.375C21.2505 22.275 20.6838 22.1667 19.8838 22.05C19.3338 21.95 18.8005 21.8333 18.2838 21.7C17.7671 21.5667 17.3421 21.3417 17.0088 21.025C16.6755 20.6917 16.5088 20.2083 16.5088 19.575C16.5088 18.9583 16.6755 18.3667 17.0088 17.8C17.3588 17.2167 17.8755 16.7333 18.5588 16.35C19.2421 15.9667 20.0755 15.775 21.0588 15.775C21.5755 15.775 22.0755 15.8333 22.5588 15.95C23.0421 16.0667 23.4421 16.2417 23.7588 16.475C24.0755 16.7083 24.2338 17 24.2338 17.35C24.2338 17.65 24.1255 17.925 23.9088 18.175C23.7088 18.425 23.4671 18.6333 23.1838 18.8C22.9171 18.95 22.6921 19.025 22.5088 19.025C22.3755 19.025 22.2171 18.9333 22.0338 18.75C21.7505 18.5167 21.4338 18.3583 21.0838 18.275C20.7505 18.175 20.4171 18.125 20.0838 18.125C19.5838 18.125 19.1755 18.2 18.8588 18.35C18.5588 18.5 18.4088 18.6917 18.4088 18.925C18.4088 19.1417 18.5338 19.3167 18.7838 19.45C19.0505 19.5833 19.3755 19.6833 19.7588 19.75C20.1421 19.8 20.5088 19.85 20.8588 19.9C21.8255 20.0333 22.5921 20.2667 23.1588 20.6C23.7255 20.9167 24.0088 21.4833 24.0088 22.3C24.0088 22.9333 23.8255 23.5667 23.4588 24.2C23.1088 24.8167 22.5921 25.325 21.9088 25.725C21.2421 26.125 20.4421 26.325 19.5088 26.325ZM28.9364 26.325C27.9364 26.325 27.1281 26.0167 26.5114 25.4C25.9114 24.7667 25.6114 23.8667 25.6114 22.7C25.6114 21.8667 25.7697 21.0417 26.0864 20.225C26.4197 19.3917 26.8947 18.6417 27.5114 17.975C28.1281 17.3083 28.8697 16.775 29.7364 16.375C30.6031 15.975 31.5781 15.775 32.6614 15.775C33.6614 15.775 34.5114 15.95 35.2114 16.3C35.9281 16.6333 36.2864 17.0917 36.2864 17.675C36.2864 17.825 36.2697 18.025 36.2364 18.275C36.2031 18.5083 36.1614 18.7 36.1114 18.85C36.0614 18.9833 35.9864 19.1083 35.8864 19.225C35.8031 19.325 35.6864 19.375 35.5364 19.375C35.4697 19.375 35.3447 19.35 35.1614 19.3C35.0947 19.65 35.0447 19.9917 35.0114 20.325C34.9781 20.6583 34.9614 20.9917 34.9614 21.325C34.9614 21.9583 35.0531 22.525 35.2364 23.025C35.4364 23.5083 35.8197 23.8083 36.3864 23.925C36.5364 23.9583 36.6531 24.0083 36.7364 24.075C36.8364 24.1417 36.8864 24.2833 36.8864 24.5C36.8864 24.6833 36.8364 24.9167 36.7364 25.2C36.6531 25.4833 36.4781 25.7417 36.2114 25.975C35.9614 26.1917 35.5947 26.3 35.1114 26.3C34.4614 26.3 33.9614 26.0667 33.6114 25.6C33.2614 25.1167 33.0864 24.4333 33.0864 23.55C32.6364 24.3667 32.0614 25.0333 31.3614 25.55C30.6781 26.0667 29.8697 26.325 28.9364 26.325ZM29.7364 23.725C30.4031 23.725 30.9864 23.5167 31.4864 23.1C32.0031 22.6833 32.4031 22.1583 32.6864 21.525C32.8697 21.125 33.0114 20.6917 33.1114 20.225C33.2114 19.7417 33.2781 19.2667 33.3114 18.8C33.0281 18.6667 32.7031 18.5583 32.3364 18.475C31.9697 18.3917 31.5864 18.35 31.1864 18.35C30.1697 18.35 29.3281 18.65 28.6614 19.25C28.0114 19.85 27.6864 20.6 27.6864 21.5C27.6864 22.1667 27.8697 22.7083 28.2364 23.125C28.6031 23.525 29.1031 23.725 29.7364 23.725ZM41.6257 26.35C41.1757 26.35 40.7841 26.2167 40.4507 25.95C40.1341 25.6667 39.9424 25.15 39.8757 24.4C39.8424 23.8333 39.7674 23.2083 39.6507 22.525C39.5507 21.8417 39.4174 21.1917 39.2507 20.575C39.0841 19.9583 38.8924 19.475 38.6757 19.125C38.5591 18.9417 38.4257 18.8083 38.2757 18.725C38.1424 18.625 37.9341 18.5583 37.6507 18.525C37.4674 18.5083 37.3424 18.45 37.2757 18.35C37.2091 18.25 37.1757 18.0917 37.1757 17.875C37.1757 17.1917 37.3591 16.6917 37.7257 16.375C38.1091 16.0417 38.5424 15.875 39.0257 15.875C39.5257 15.875 39.9424 16.0417 40.2757 16.375C40.6091 16.6917 40.8674 17.1167 41.0507 17.65C41.2341 18.1833 41.3591 18.775 41.4257 19.425C41.5091 20.0583 41.5507 20.7 41.5507 21.35C41.5507 21.6167 41.5424 21.9 41.5257 22.2C41.5257 22.4833 41.5257 22.725 41.5257 22.925C41.5257 23.1083 41.5591 23.25 41.6257 23.35C41.7091 23.45 41.8591 23.5 42.0757 23.5C42.3424 23.5 42.6507 23.425 43.0007 23.275C43.3507 23.1083 43.6924 22.875 44.0257 22.575C44.3757 22.275 44.6591 21.925 44.8757 21.525C45.1091 21.1083 45.2257 20.65 45.2257 20.15C45.2257 19.8667 45.1757 19.5667 45.0757 19.25C44.9924 18.9333 44.8507 18.6667 44.6507 18.45C44.4507 18.2333 44.3007 18.0667 44.2007 17.95C44.1174 17.8167 44.0757 17.6667 44.0757 17.5C44.0757 17.2 44.2091 16.925 44.4757 16.675C44.7591 16.425 45.0841 16.225 45.4507 16.075C45.8341 15.925 46.1674 15.85 46.4507 15.85C46.9341 15.85 47.2424 16.05 47.3757 16.45C47.5091 16.85 47.5757 17.2917 47.5757 17.775C47.5757 18.6917 47.4091 19.65 47.0757 20.65C46.7424 21.65 46.2924 22.5833 45.7257 23.45C45.1591 24.3167 44.5174 25.0167 43.8007 25.55C43.1007 26.0833 42.3757 26.35 41.6257 26.35ZM52.752 26.325C51.4853 26.325 50.4936 25.9667 49.777 25.25C49.077 24.5167 48.727 23.5 48.727 22.2C48.727 21.0167 48.9853 19.9417 49.502 18.975C50.0186 18.0083 50.7103 17.2417 51.577 16.675C52.4603 16.0917 53.427 15.8 54.477 15.8C55.477 15.8 56.277 16.05 56.877 16.55C57.477 17.0333 57.777 17.6833 57.777 18.5C57.777 19.15 57.577 19.75 57.177 20.3C56.777 20.85 56.2436 21.2917 55.577 21.625C54.9103 21.9417 54.1686 22.1 53.352 22.1C52.352 22.1 51.5353 21.875 50.902 21.425C50.9186 22.1917 51.177 22.8083 51.677 23.275C52.1936 23.7417 52.852 23.975 53.652 23.975C54.1353 23.975 54.627 23.8917 55.127 23.725C55.6436 23.5417 56.0853 23.3 56.452 23C56.6853 22.8 56.902 22.7 57.102 22.7C57.2686 22.7 57.402 22.7583 57.502 22.875C57.6186 22.975 57.677 23.1083 57.677 23.275C57.677 23.6417 57.3603 24.125 56.727 24.725C55.6103 25.7917 54.2853 26.325 52.752 26.325ZM53.127 20.45C53.727 20.45 54.227 20.325 54.627 20.075C55.027 19.825 55.227 19.5083 55.227 19.125C55.227 18.8083 55.0936 18.5667 54.827 18.4C54.5603 18.2167 54.1936 18.125 53.727 18.125C53.1103 18.125 52.5686 18.2917 52.102 18.625C51.652 18.9417 51.327 19.3917 51.127 19.975C51.3603 20.125 51.6603 20.2417 52.027 20.325C52.3936 20.4083 52.7603 20.45 53.127 20.45Z" fill="#D9D9D9"/>
</svg>
